<svg xmlns="http://www.w3.org/2000/svg" width="1200" height="630" viewBox="0 0 1200 630" font-family="-apple-system,Segoe UI,Roboto,Helvetica,Arial,sans-serif">
  <rect width="1200" height="630" fill="#FAF8F4"/>
  <rect width="1200" height="14" fill="#C2702B"/>
  <!-- logo mark -->
  <g transform="translate(96,96)">
    <path d="M0 70C0 31 35 0 84 0s84 31 84 70c0 5-4 8-9 8H9c-5 0-9-3-9-8Z" fill="#C2702B"/>
    <circle cx="44" cy="44" r="9" fill="#8f4f17" opacity=".45"/>
    <circle cx="92" cy="34" r="7" fill="#8f4f17" opacity=".45"/>
    <circle cx="128" cy="50" r="6" fill="#8f4f17" opacity=".45"/>
    <rect x="64" y="74" width="40" height="78" rx="18" fill="#E3D5BE"/>
  </g>
  <text x="290" y="190" font-size="62" font-weight="800" fill="#1E1B16" letter-spacing="-2">Mycro</text>
  <text x="292" y="232" font-size="26" font-weight="700" fill="#8f4f17" letter-spacing="1">FOR SMALL GOURMET MUSHROOM FARMS</text>

  <text x="96" y="356" font-size="58" font-weight="800" fill="#1E1B16" letter-spacing="-1.5">Run your mushroom farm on</text>
  <text x="96" y="424" font-size="58" font-weight="800" fill="#1E1B16" letter-spacing="-1.5">more than a notebook.</text>

  <text x="96" y="486" font-size="28" fill="#6B6457">Track every batch spawn → flush · catch contamination early · know your real cost &amp; profit.</text>

  <!-- mini stat chips echoing the product -->
  <g transform="translate(96,520)" font-weight="800">
    <g>
      <rect x="0" y="0" width="250" height="74" rx="14" fill="#fff" stroke="#E7E0D5"/>
      <text x="20" y="34" font-size="30" fill="#3B6B4A">102 lb</text>
      <text x="20" y="58" font-size="16" font-weight="600" fill="#6B6457">expected yield</text>
    </g>
    <g transform="translate(266,0)">
      <rect x="0" y="0" width="250" height="74" rx="14" fill="#fff" stroke="#E7E0D5"/>
      <text x="20" y="34" font-size="30" fill="#1E1B16">$2.18/lb</text>
      <text x="20" y="58" font-size="16" font-weight="600" fill="#6B6457">true cost to produce</text>
    </g>
    <g transform="translate(532,0)">
      <rect x="0" y="0" width="220" height="74" rx="14" fill="#fff" stroke="#E7E0D5"/>
      <text x="20" y="34" font-size="30" fill="#2f7d4f">82%</text>
      <text x="20" y="58" font-size="16" font-weight="600" fill="#6B6457">margin</text>
    </g>
  </g>
  <text x="980" y="566" font-size="22" font-weight="800" fill="#C2702B">Free Grow</text>
  <text x="980" y="594" font-size="22" font-weight="800" fill="#C2702B">Calculator →</text>
</svg>
